Patient4_TMGait_0pt5_02_right_27_EMG.mot
version=1
nRows=26
nColumns=33
inDegrees=no
endheader
time	1LAddLong	2LGlutMax	3LGlutMed	4LIliopsoas	5LSemiMemb	6LBicFemLong	7LRecFem	8LVastMed	9LVastLat	10LGasMed	11LTibAnt	12lTibPost	13LPeroneusLong	14LSol	15LExtDigLong	16LFlexDigLong	17RAddLong	18RGlutMax	19RGlutMed	20RIliopsoas	21RSemiMemb	22RBicFemLong	23RRecFem	24RVastMed	25RVastLat	26RGasMed	27RTibAnt	28RTibPost	29RPeroneusLong	30RSol	31RExtDigLong	32RFlexDigLong
35.18	-0.001984	-0.007019	0.025635	0.001831	-0.037537	0.094147	-0.021515	0.001221	0.01297	-0.069885	0.010834	-0.026093	0.03067	-0.3656	-0.009003	-0.58319	0.065308	-0.018616	-0.045013	-0.036316	-0.010834	-0.025024	0.021667	-0.084991	-0.018311	0.002899	0.2269	-0.003967	-0.076752	-0.074158	-0.011444	-0.006256
35.181	0.002594	0.013733	0.033722	0.011292	-0.066376	-0.026093	-0.02182	0.00473	0.006866	-0.030212	0.006256	-0.016785	0.000153	-0.4039	0.016327	0.56152	0.031433	0.026398	0.10483	0.044861	-0.013123	-0.007629	0.027008	-0.10071	0.001068	0.001831	0.073242	-0.005341	0.001984	-0.049896	-0.017853	0.001526
35.182	0.013885	-0.011139	-0.022583	0.016022	-0.003815	-0.070038	-0.008087	0.003967	0.004272	-0.13031	0.016632	0.006714	-0.015106	0.013733	0.016022	0.18036	-0.001526	0.027466	-0.049744	0.085754	0.007935	-0.005188	0.052185	-0.07431	0.012054	0.000916	0.22308	-0.002594	-0.027008	0.049591	-0.018463	0.000153
35.183	0.015106	-0.011749	-0.045471	-0.011292	-0.011597	-0.17364	-0.00946	0.00412	0.001831	-0.27313	0.016479	0.053101	-0.054474	0.15656	0.027161	-0.31342	-0.014343	-0.033569	-0.08255	0.053101	0.017548	0.004425	0.016022	-0.076599	0.017242	0.000458	0.24582	-0.002899	-0.043182	0.072479	-0.015106	-0.001526
35.184	0.011444	-0.032196	0.008392	0.003662	0.039215	-0.2243	0.001984	-0.001068	0.001984	-0.32211	-0.000916	0.2565	-0.011749	0.11429	-0.010681	-0.36423	-0.02243	-0.044556	-0.0737	0.032806	0.020905	0.00946	0.020752	-0.044708	0.031281	-0.002441	0.31769	-0.007782	-0.1648	0.063477	-0.014191	0.002594
35.185	0.008392	-0.016632	0.064697	-0.007324	0.042572	-0.29098	-0.013275	-0.006104	0.007629	-0.18173	-0.000763	-0.14801	-0.015411	0.37293	-0.001068	0.33295	-0.034485	-0.036774	-0.121	0.033417	0.021362	0.002747	0.062103	-0.061493	0.014343	-0.007477	0.15411	-0.003052	-0.28183	0.097809	-0.015564	-0.002899
35.186	0.011292	0.014954	-0.015411	0.010529	0.001984	-0.25909	-0.039673	0.000763	0.018311	-0.069885	-0.009155	-0.033417	-0.036469	0.58105	0.025635	-0.19516	0.010071	-0.050354	-0.24704	0.089569	0.012817	-0.010223	0.0737	-0.10361	0.009613	-0.010376	-0.18494	-0.003662	-0.2626	0.077362	-0.012207	-0.007477
35.187	0.00473	0.009613	-0.010681	0.03006	-0.00351	-0.096741	-0.037994	0.00351	0.027161	0.07843	0.004272	-0.10696	-0.038452	1.1832	-0.097351	0.54184	0.014191	-0.029907	-0.20828	0.13626	-0.000153	-0.016785	0.088348	-0.11536	-0.014343	-0.006561	-0.38422	-0.001068	-0.17868	-0.039368	-0.018311	-0.002747
35.188	0.001831	-0.025635	-0.014038	0.023193	0.007172	-0.028839	-0.01297	0.004883	0.014038	0.036926	-0.002594	0.011597	0.028381	1.0516	-0.04776	-0.00824	-0.018616	-0.12802	-0.22812	0.093994	0.002136	-0.010681	0.099945	-0.10559	-0.012665	-0.008545	-0.16464	-0.007629	-0.23239	-0.12497	-0.013428	-0.003662
35.189	0.015717	-0.019836	0.097198	0.006104	0.012512	0.041656	-0.022888	-0.001373	0.027771	-0.016785	0.002441	-0.019989	0.093842	0.32196	-0.011597	0.092926	-0.025787	-0.074615	-0.11597	0.019989	0.001678	0.006866	0.080109	-0.072479	-0.00885	0.003357	0.3537	-0.002899	-0.14526	-0.16342	-0.014648	0.001984
35.19	0.003204	-0.01236	0.075378	0.018158	0.001984	0.07843	-0.014954	-0.002136	0.016937	-0.026703	0.002441	-0.17288	0.11169	-0.016479	0.005035	0.016632	-0.034027	-0.037994	-0.018005	-0.045624	0.018463	0.00946	0.011139	-0.074768	-0.006866	-0.001068	0.73929	-0.001831	-0.1416	-0.16068	-0.016937	-0.00061
35.191	-0.002289	-0.012207	0.013428	-0.002441	-0.02243	0.14374	-0.000458	0.005188	-0.001373	-0.076294	0.006561	-0.013275	0.064697	-0.053711	-0.015717	-0.37857	-0.0383	-0.00946	0.11276	-0.09552	0.016632	-0.001373	0.024414	-0.075378	0.00946	-0.000458	0.4657	-0.00351	0.070648	-0.056305	-0.018768	-0.002136
35.192	-0.002136	0.019684	-0.08194	-0.00351	-0.032654	0.082855	0.00061	0.009155	0.001068	-0.011292	0.004272	0.003662	0.062714	-0.60226	0.005646	-0.34515	-0.037689	0.039063	0.011292	-0.087128	0.015106	0.029755	0.050659	-0.10346	-0.015869	-0.007782	0.21011	0.002136	0.21149	0.057068	-0.009918	-0.002594
35.193	0.008087	0.024261	-0.12894	-0.003357	0.020294	0.015106	0.000305	0.007172	0.020294	0.031586	-0.005798	-0.024567	0.045929	-0.64819	0.018921	0.32623	-0.026855	0.054321	0.015411	-0.090637	0.022125	0.023041	-0.009766	-0.093536	0.006866	-0.018158	-0.26352	-0.003967	0.025177	0.13306	-0.013275	0
35.194	-0.009613	0.009613	-0.097961	-0.003357	0.032806	0.037994	0.001526	0.006714	0.023956	0.24963	-0.004578	-0.015869	0.070038	-0.37033	0.009308	-0.26245	-0.006409	0.011749	-0.10712	-0.027466	0.014038	0.027924	0.057373	-0.090637	0.001221	-0.010376	-0.65201	-0.003357	0.03067	0.18723	-0.014191	0.000763
35.195	-0.018463	-0.007935	-0.048828	0.023651	-0.015411	-0.008698	-0.013275	0.009155	0.031281	0.47348	-0.008087	0.005646	0.085449	-0.1767	0.024872	0.44327	0.005188	0.014954	-0.063324	-0.034637	0.017395	0.029144	0.067139	-0.051727	-0.007782	-0.011749	-0.54932	-0.003052	0.13016	0.14938	-0.017395	-0.002441
35.196	0.001678	-0.043488	-0.13016	0.021667	-0.072784	0.022888	0.016022	0.008698	0.019073	0.56305	-0.001831	0.006561	0.035706	-0.20783	0.029907	0.066986	0.015564	0.023041	0.082703	-0.045166	0.019226	0.00946	0.071564	-0.050964	-0.014801	-0.006409	-0.242	0.003967	0.13016	0.04425	-0.013733	0.001984
35.197	-0.002747	-0.006256	-0.15732	0.014801	-0.11795	0.11551	-0.011749	0.004578	0.010071	0.59479	0.000458	-0.023346	0.029907	-0.30762	0.035858	-0.035553	0.003662	-0.034332	0.051422	-0.043793	0.024261	0.016632	0.059662	-0.025482	0.000305	-0.01236	0.047302	-0.00351	0.06012	0.014801	-0.011902	-0.000916
35.198	0.021057	-0.007477	-0.10071	0.004272	-0.066223	0.13306	-0.033569	-0.005951	0.022736	0.57175	-0.001984	-0.039063	0.034332	-0.27344	0.033264	-0.04715	0.008392	-0.037384	0.041351	-0.001678	0.007172	0.010529	0.069427	-0.025787	-0.005798	-0.006409	0.177	-0.004272	0.17242	-0.014038	-0.014038	-0.001373
35.199	0.013733	0.048523	-0.10056	-0.00473	0.062408	0.13657	-0.042114	0	0.018463	0.24979	-0.005646	-0.01236	0.021057	-0.081635	0.033569	-0.043793	-0.002441	-0.018768	0.13443	0.052948	0.015411	0.007324	0.14465	-0.035248	-0.002289	-0.004578	0.3067	-0.00473	-0.093842	-0.051117	-0.011444	-0.001526
35.2	0.013733	0.054016	-0.03418	-0.002899	0.103	0.13916	-0.013885	0.000153	-0.10223	-0.53406	-0.00824	-0.002136	0.001373	-0.067444	0.038452	-0.054779	0.004272	-0.042572	0.018005	0.083618	0.014038	0.010376	0.12634	0.021515	0	-0.011902	0.35614	-0.00473	-0.27512	-0.020905	-0.011444	-0.000763
35.201	0.00473	0.019531	-0.020294	-0.004578	0.042419	0.019531	-0.010376	-0.002441	-0.050354	-0.80719	-0.001526	0.02182	-0.032959	-0.084076	0.027924	-0.057373	-0.000763	-0.074005	-0.073547	0.068359	0.020905	0.014648	0.11047	-0.023346	0.010986	-0.012665	0.29907	-0.00412	-0.20523	0.013428	-0.007935	-0.008392
35.202	-0.002289	0.030212	-0.048828	0.005646	0.000305	-0.12726	0.053253	-0.001984	0.020294	-0.38467	-0.001831	0.018005	-0.026703	-0.034027	0.031738	-0.044556	0.005188	-0.043488	-0.15945	0.030823	0.003815	0.009613	0.098877	-0.016937	0.020599	0.002441	0.15198	-0.003052	0.021973	-0.026855	-0.011444	0.005951
35.203	0.001984	0.027924	-0.037231	-0.006104	-0.042877	-0.36026	0.11917	0.005951	0.08728	-0.31876	-0.001526	0.023804	-0.027924	-0.019531	0.036926	-0.03479	0.002899	-0.003967	-0.10056	0.010376	0.007324	0.015106	-0.020752	-0.014954	0.006256	0.000458	-0.020294	-0.003357	0.023346	0.000153	-0.012665	0
35.204	-0.007782	-0.007629	-0.034485	0.011292	-0.061646	-0.20523	0.096741	0.018616	0.069275	-0.25665	0.001221	-0.025635	-0.034027	-0.05661	0.027008	-0.035553	-0.005188	-0.083313	0.027313	0.007935	0.010986	0.027161	0.016479	-0.052948	0.013123	-0.006561	-0.16007	-0.007935	-0.020905	0.033875	-0.00946	-0.012054
35.205	-0.011139	-0.041351	-0.02533	0.039368	0.007629	-0.097656	0.028381	0.008545	0.051575	-0.03006	-0.006104	-0.011597	-0.041962	-0.048523	0.028839	-0.027618	-0.00473	-0.09613	0.040894	0.013885	0.001373	0.025635	0.066986	-0.034027	0.001068	-0.009613	-0.051575	-0.005035	0.072632	0.036469	-0.008087	-0.006409
